<?xml version="1.0" encoding="UTF-8"?>
<!DOCTYPE svg PUBLIC "-//W3C//DTD SVG 1.1//EN" "http://www.w3.org/Graphics/SVG/1.1/DTD/svg11.dtd">
<!-- Creator: CorelDRAW 2020 (64-Bit) -->
<svg xmlns="http://www.w3.org/2000/svg" xml:space="preserve" width="124.977mm" height="22.9668mm" version="1.1" style="shape-rendering:geometricPrecision; text-rendering:geometricPrecision; image-rendering:optimizeQuality; fill-rule:evenodd; clip-rule:evenodd"
viewBox="0 0 21696.6 3987.15"
 xmlns:xlink="http://www.w3.org/1999/xlink"
 xmlns:xodm="http://www.corel.com/coreldraw/odm/2003">
 <defs>
  <style type="text/css">
   <![CDATA[
    .fil0 {fill:#2B2A29}
   ]]>
  </style>
 </defs>
 <g id="Layer_x0020_1">
  <metadata id="CorelCorpID_0Corel-Layer"/>
  <polygon class="fil0" points="2096.17,0 2588.76,1526.04 4192.33,1522.95 2893.21,2463.02 3391.66,3987.15 2096.17,3042.09 800.66,3987.15 1299.12,2463.02 -0,1522.95 1603.57,1526.04 "/>
  <polygon class="fil0" points="6472.23,0 6964.81,1526.04 8568.38,1522.95 7269.26,2463.02 7767.72,3987.15 6472.23,3042.09 5176.72,3987.15 5675.17,2463.02 4376.05,1522.95 5979.62,1526.04 "/>
  <polygon class="fil0" points="10848.28,0 11340.87,1526.04 12944.44,1522.95 11645.32,2463.02 12143.77,3987.15 10848.28,3042.09 9552.77,3987.15 10051.23,2463.02 8752.11,1522.95 10355.68,1526.04 "/>
  <polygon class="fil0" points="15224.34,0 15716.92,1526.04 17320.49,1522.95 16021.37,2463.02 16519.83,3987.15 15224.34,3042.09 13928.83,3987.15 14427.28,2463.02 13128.16,1522.95 14731.73,1526.04 "/>
  <polygon class="fil0" points="19600.44,0 20093.03,1526.04 21696.6,1522.95 20397.48,2463.02 20895.93,3987.15 19600.44,3042.09 18304.93,3987.15 18803.39,2463.02 17504.27,1522.95 19107.84,1526.04 "/>
 </g>
</svg>
